<svg width="350" height="350" viewBox="0 0 239 205" fill="none" xmlns="http://www.w3.org/2000/svg">
<path fill-rule="evenodd" clip-rule="evenodd" d="M37.7133 124.798V201.478C37.7031 202.407 37.3242 203.295 36.6584 203.95C35.9925 204.606 35.093 204.976 34.154 204.981H3.55933C2.61869 204.981 1.7163 204.612 1.04935 203.956C0.382407 203.3 0.00514006 202.409 0 201.478L0 124.798H37.7133ZM0 99.7573L80.892 29.7174C98.8053 47.0397 116.174 68.0767 133.893 85.399L198.525 21.1717L177.713 0.538917L239 0V61.167L219.025 41.4003C204.69 55.7779 170.789 87.4392 156.455 101.644C138.308 119.582 129.653 119.909 111.526 101.971L80.892 68.2499L44.9875 99.7573H0ZM222.448 74.4667V201.497C222.438 202.423 222.062 203.308 221.4 203.963C220.738 204.618 219.844 204.99 218.908 205H188.294C187.359 204.985 186.466 204.608 185.808 203.949C185.15 203.291 184.779 202.404 184.774 201.478V110.266C190.609 104.665 197.416 98.1598 204.36 91.5388L218.85 77.7387C220.004 76.586 221.218 75.4938 222.487 74.4667H222.448ZM160.87 131.534V201.478C160.86 202.407 160.481 203.295 159.815 203.95C159.149 204.606 158.25 204.976 157.311 204.981H126.716C125.777 204.976 124.877 204.606 124.212 203.95C123.546 203.295 123.167 202.407 123.157 201.478V139.002C126.804 139.878 130.549 140.285 134.301 140.215C143.846 140.077 153.119 137.048 160.87 131.534ZM99.2916 125.76V201.382C99.2814 202.311 98.9025 203.199 98.2366 203.854C97.5708 204.509 96.6713 204.88 95.7323 204.885H65.1182C64.1809 204.879 63.2835 204.509 62.6207 203.853C61.958 203.197 61.5834 202.309 61.5783 201.382V119.332C62.2007 118.87 62.8036 118.388 63.3871 117.888L78.6747 104.415L91.0059 117.888L91.959 118.87C94.4486 121.346 96.8928 123.604 99.2916 125.645V125.76Z" fill="white"/>
</svg>
